<?xml version="1.0" standalone="no"?><!DOCTYPE svg PUBLIC "-//W3C//DTD SVG 1.1//EN" "http://www.w3.org/Graphics/SVG/1.1/DTD/svg11.dtd"><svg t="1725812874922" class="icon" viewBox="0 0 1024 1024" version="1.1" xmlns="http://www.w3.org/2000/svg" p-id="9687" width="256" height="256" xmlns:xlink="http://www.w3.org/1999/xlink"><path d="M438.816 628.736q-80.576-222.336 73.248-359.04 98.72-87.776 270.24-100 59.488-4.256 112.928 1.824 52.608 6.016 65.728 19.136 14.528 14.528 9.408 63.232-4.48 42.432-19.296 94.336-39.68 138.784-117.024 227.2-116.064 132.64-352.8 80.896-25.248 100.576-25.248 191.296l-47.872 2.336q-10.72-110.08-31.36-188.192-15.136-57.504-51.136-74.56-51.2 44.416-117.632 44.416-50.848 0-110.816-47.136-57.184-44.896-57.184-72.864 0-29.728 54.624-59.136 53.6-28.864 113.376-28.864 93.344 0 131.328 117.12 61.504 24.064 83.872 108.768 2.752 10.368 5.312 21.248 4.64-20.8 10.304-42.016z m-146.24-76.48q-27.424-80.64-84.576-80.64-47.68 0-90.624 23.136-16.064 8.64-25.76 17.696l-0.192 0.16q1.824 2.304 4.16 4.992 12.768 14.624 31.232 29.12Q173.76 583.648 208 583.648q47.296 0 84.576-31.36z m204.576 58.368q204.736 42.944 300.8-66.816 70.272-80.32 106.976-208.768 13.664-47.872 17.696-86.176 1.536-14.528 1.184-23.808l-2.08-0.544q-12.736-3.104-31.936-5.28-49.024-5.6-104.096-1.664-155.2 11.072-241.76 88-111.552 99.136-75.328 255.36 29.856-53.728 74.432-98.272 131.616-131.616 264.416-181.44l0.096-0.064q4.096-1.536 8.448-1.536 5.152 0 9.856 2.144h0.064q4.256 1.92 7.456 5.312 3.2 3.392 4.928 7.712l0.16 0.416q1.536 4.064 1.536 8.416 0 3.616-1.056 7.04-1.056 3.456-3.104 6.464-2.016 2.976-4.832 5.248-2.816 2.24-6.176 3.584l-0.416 0.128q-123.136 46.208-247.456 170.528-50.432 50.432-79.808 114.016z" p-id="9688" fill="#6db33f"></path></svg>